<?xml version="1.0" encoding="iso-8859-1"?>
<!-- Generator: Adobe Illustrator 19.0.0, SVG Export Plug-In . SVG Version: 6.00 Build 0)  -->
<svg version="1.1" id="Layer_1" xmlns="http://www.w3.org/2000/svg" xmlns:xlink="http://www.w3.org/1999/xlink" x="0px" y="0px"
	 viewBox="0 0 496 496" style="enable-background:new 0 0 496 496;" xml:space="preserve">
<g>
	<g>
		<g>
			<path d="M110.488,269.724c3.088-8.784,1.208-18.944-5.8-25.96c-2.944-2.936-6.472-4.88-10.2-6.04
				c3.088-8.784,1.208-18.944-5.8-25.96c-5.352-5.336-12.528-7.632-19.528-7.112l0.52-4.176c0.856-6.84-1.264-13.736-5.832-18.904
				c-4.56-5.176-11.136-8.144-18.032-8.144c-11.992,0-22,8.6-23.792,20.464l-6.36,42.016l-15.512,80L0,365.428l8,40.792v87.208h16
				v-88l-8-40.792v-46.448l15.424-79.568l6.416-42.344c0.6-3.968,3.96-6.848,7.976-6.848c2.344,0,4.488,0.968,6.04,2.728
				c1.552,1.76,2.24,4,1.952,6.328l-5.744,45.952l-0.04,17.04c-0.176,0-0.336-0.048-0.512-0.048c-13.184,0-23.512,10.536-23.512,24
				v56h16v-56c0-4.56,3.232-8,7.76-8c4.464,0,8.24,3.664,8.24,8v18.424l32,48v141.576h16V347.004l-7.696-11.544l24.384-24.384
				c4.72-4.704,7.312-10.976,7.312-17.648s-2.592-12.944-7.312-17.664C117.736,272.828,114.208,270.884,110.488,269.724z
				 M64,245.932l3.048-24.416c3.36-1.688,7.52-1.232,10.328,1.568c1.696,1.696,2.624,3.944,2.624,6.344
				c0,2.4-0.928,4.648-2.624,6.344l-8,8L64,249.148V245.932z M65.976,269.796l14.712-14.712c3.504-3.504,9.184-3.504,12.688,0
				c1.696,1.696,2.624,3.944,2.624,6.344c0,2.4-0.928,4.648-2.624,6.344l-8,8L72,289.14v-3.712
				C72,279.428,69.688,274.004,65.976,269.796z M109.376,299.772l-22.12,22.12l-10.152-15.224l19.584-19.584
				c3.504-3.504,9.184-3.504,12.688,0c1.696,1.696,2.624,3.944,2.624,6.344C112,295.828,111.072,298.076,109.376,299.772z"/>
			<path d="M480.392,236.236l-6.416-42.344c-1.792-11.864-11.8-20.464-23.792-20.464c-6.896,0-13.48,2.968-18.04,8.144
				c-4.56,5.176-6.688,12.064-5.832,18.896l0.52,4.184c-7.008-0.528-14.192,1.776-19.528,7.12c-7.008,7.008-8.888,17.176-5.8,25.96
				c-3.72,1.16-7.256,3.104-10.2,6.04c-7.008,7.008-8.888,17.168-5.8,25.952c-3.72,1.16-7.256,3.104-10.2,6.048
				c-4.712,4.712-7.304,10.984-7.304,17.656s2.592,12.944,7.312,17.656l24.384,24.384L392,347.004v146.424h16V351.852l32-48v-18.424
				c0-4.336,3.776-8,8.48-8c4.28,0,7.52,3.44,7.52,8v56h16v-56c0-13.464-10.328-24-23.76-24c-0.08,0-0.16,0.024-0.24,0.024v-16.024
				l-5.808-46.952c-0.288-2.32,0.4-4.56,1.952-6.32c1.552-1.76,3.696-2.728,6.04-2.728c4.016,0,7.376,2.88,7.976,6.848l6.472,42.672
				L480,318.196v46.448l-7.848,39.216L472,493.428h16V406.22l7.84-39.216l0.16-49.576L480.392,236.236z M408.744,321.892
				l-22.12-22.12c-1.696-1.696-2.624-3.944-2.624-6.344c0-2.4,0.928-4.648,2.624-6.336c3.504-3.504,9.192-3.504,12.688-0.008
				l19.584,19.584L408.744,321.892z M424,285.428v3.712l-13.376-13.368l-8-8c-1.696-1.696-2.624-3.944-2.624-6.344
				c0-2.4,0.928-4.648,2.624-6.336c3.504-3.504,9.192-3.504,12.688-0.008l14.696,14.696C426.32,273.996,424,279.428,424,285.428z
				 M432,249.148l-5.376-5.376l-8-8c-1.696-1.696-2.624-3.944-2.624-6.344c0-2.4,0.928-4.648,2.624-6.336
				c2.8-2.8,6.96-3.256,10.328-1.576L432,245.932V249.148z"/>
			<path d="M413.888,178.836l4.968-5.408l-4.968-5.408c-1.28-1.408-26.136-28.104-59.888-38.504
				c16.512-31.216,15.208-67.68,15.136-69.576l-0.312-7.336l-7.336-0.312c-1.912-0.112-38.336-1.4-69.576,15.136
				c-10.4-33.752-37.096-58.608-38.504-59.888L248,2.572l-5.408,4.968c-1.408,1.28-28.104,26.144-38.504,59.888
				c-31.208-16.512-67.672-15.232-69.576-15.136l-7.336,0.312l-0.312,7.336c-0.08,1.896-1.392,38.352,15.136,69.576
				c-33.752,10.4-58.608,37.096-59.888,38.504l-4.968,5.408l4.968,5.408c1.592,1.744,39.624,42.592,85.888,42.592
				c2.4,0,4.784-0.112,7.152-0.32c29.536-2.64,55.168-21.848,66.888-50.152c0.344-0.832,0.672-1.664,0.992-2.504
				c0.832-0.32,1.672-0.648,2.504-0.992c0.824-0.344,1.656-0.704,2.472-1.072c0.816,0.368,1.64,0.728,2.472,1.072
				c0.824,0.344,1.664,0.672,2.504,0.992c0.32,0.832,0.648,1.672,0.992,2.504c11.72,28.296,37.352,47.504,66.896,50.152
				c2.344,0.208,4.728,0.32,7.128,0.32C374.264,221.428,412.296,180.58,413.888,178.836z M295.68,100.572
				c0.208-2.36,0.32-4.744,0.32-7.144c0-3.248-0.2-6.456-0.576-9.608c20.288-12.168,45.232-14.872,57.632-15.432
				c-0.544,12.392-3.216,37.304-15.432,57.616c-17.464-2.072-36.2,1.752-55.256,11.704C289.8,126.788,294.48,114.084,295.68,100.572
				z M325.096,141.5c-0.696,0.632-1.408,1.248-2.136,1.848c-13,10.872-29.128,15.808-45.688,14.432
				c3.592-1.36,7.128-2.976,10.56-4.848C300.752,145.884,313.264,142.036,325.096,141.5z M200.576,83.804
				C200.2,86.964,200,90.18,200,93.428c0,2.4,0.112,4.784,0.32,7.152c1.2,13.512,5.88,26.208,13.312,37.136
				c-15.6-8.152-30.944-12.288-45.632-12.288c-3.248,0-6.456,0.2-9.608,0.576c-12.168-20.288-14.872-45.232-15.432-57.632
				C155.352,68.916,180.264,71.596,200.576,83.804z M218.728,157.78c-16.536,1.384-32.688-3.56-45.696-14.44
				c-0.72-0.592-1.432-1.208-2.128-1.84c11.832,0.536,24.344,4.384,37.256,11.432C211.6,154.804,215.136,156.42,218.728,157.78z
				 M173.736,205.172c-1.896,0.16-3.808,0.256-5.736,0.256c-29.928,0-57.192-21.632-68.536-32
				c9.168-8.376,28.704-24.088,51.64-29.832c1.976,2.504,4.104,4.912,6.408,7.216c1.696,1.688,3.456,3.304,5.264,4.816
				c16.848,14.088,38.592,20.2,60.288,17.704C212.48,191.612,194.592,203.308,173.736,205.172z M216.256,99.164
				c-0.088-0.936-0.144-1.872-0.184-2.824c0.632,0.704,1.248,1.408,1.848,2.136c9.096,10.864,14.032,23.952,14.6,37.592
				C223.272,126.012,217.512,113.276,216.256,99.164z M248,130.316c-1.64-15.336-7.664-29.992-17.792-42.112
				c-1.512-1.824-3.136-3.576-4.832-5.288c-2.296-2.296-4.704-4.424-7.2-6.392c5.744-22.936,21.456-42.48,29.832-51.64
				c8.376,9.168,24.088,28.704,29.824,51.64c-2.496,1.976-4.912,4.104-7.216,6.408c-1.688,1.696-3.304,3.456-4.816,5.264
				C255.664,100.324,249.64,114.98,248,130.316z M263.48,136.06c0.568-13.64,5.512-26.728,14.608-37.6
				c0.592-0.72,1.208-1.432,1.84-2.128c-0.04,0.944-0.104,1.888-0.184,2.816C278.48,113.26,272.728,126.012,263.48,136.06z
				 M328,205.428c-1.928,0-3.848-0.096-5.728-0.256c-20.864-1.856-38.752-13.552-49.336-31.832
				c21.632,2.48,43.432-3.608,60.28-17.696c1.824-1.512,3.576-3.136,5.288-4.832c2.296-2.296,4.424-4.704,6.392-7.2
				c22.936,5.744,42.48,21.456,51.64,29.832C385.192,183.796,357.928,205.428,328,205.428z"/>
		</g>
	</g>
</g>
<g>
</g>
<g>
</g>
<g>
</g>
<g>
</g>
<g>
</g>
<g>
</g>
<g>
</g>
<g>
</g>
<g>
</g>
<g>
</g>
<g>
</g>
<g>
</g>
<g>
</g>
<g>
</g>
<g>
</g>
</svg>
