<svg xmlns="http://www.w3.org/2000/svg" viewBox="0 0 512 512" style="height: 512px; width: 512px;"><polygon points="384,477.7,256,426.67,128,477.7,108.2,341.33,0,256,108.2,170.67,128,34.3,256,85.33,384,34.3,403.8,170.67,512,256,403.8,341.33" fill="url(#pattern)" fill-opacity="1"></polygon><g class="" transform="translate(0,0)" style=""><path d="M196 16c-16.62 0-30 13.38-30 30v120H46c-16.62 0-30 13.38-30 30v120c0 16.62 13.38 30 30 30h120v120c0 16.62 13.38 30 30 30h120c16.62 0 30-13.38 30-30V346h120c16.62 0 30-13.38 30-30V196c0-16.62-13.38-30-30-30H346V46c0-16.62-13.38-30-30-30zm0 135h120l-60 60zm0 75h120l-60 60zm0 75h120l-60 60z" fill="#ccdce4" transform="translate(512, 0) scale(-1, 1) rotate(0, 256, 256) skewX(0) skewY(0)" fill-opacity="1"></path></g></svg>
